<svg xmlns="http://www.w3.org/2000/svg" viewBox="0 0 160 112" shape-rendering="crispEdges" role="img" aria-labelledby="t d">
<title id="t">I Ninomon — edizione Game Boy Color</title><desc id="d">Pixel art originale a quattro colori: stazione abbandonata, tre Ninomon da scoprire e insegna Ninomon.</desc>
<rect width="160" height="112" fill="#899778"/>
<rect x="0" y="0" width="160" height="8" fill="#26393a"/>
<rect x="0" y="8" width="160" height="2" fill="#586657"/>
<rect x="0" y="29" width="160" height="46" fill="#586657"/>
<path fill="#26393a" d="M0 33H29V67H0zM131 33H160V67H131zM38 35H53V64H38zM107 35H122V64H107z"/>
<path fill="#d8d8ae" d="M3 36H25V39H3zM135 36H157V39H135zM41 38H50V42H41zM110 38H119V42H110z"/>
<path fill="#899778" d="M7 44H21V55H7zM139 44H153V55H139zM42 46H49V57H42zM111 46H118V57H111z"/>
<path fill="#26393a" d="M0 73H160V80H0z"/>
<path fill="#d8d8ae" d="M0 77H160V80H0z"/>
<path fill="#586657" d="M0 80H160V112H0z"/>
<path fill="#26393a" d="M11 112L40 79H47L27 112zM134 112L113 79H121L151 112z"/>
<path fill="#d8d8ae" d="M14 112L43 80H45L23 112zM138 112L116 80H118L145 112z"/>
<path fill="#899778" d="M3 100H157V103H3zM6 91H153V93H6zM15 84H145V86H15z"/>
<!-- Rat / pigeon / fish silhouettes, all four colours shared by environment. -->
<path fill="#26393a" d="M24 83V66H29V71H34V66H39V71H45V78H49V92H44V95H30V92H25V88H21V83z"/>
<path fill="#899778" d="M29 77H40V83H45V90H29z"/>
<path fill="#d8d8ae" d="M31 80H34V83H31zM39 80H42V83H39z"/>
<path fill="#26393a" d="M49 91H54V87H59V83H64V79H66V85H63V90H59V94H49z"/>
<path fill="#26393a" d="M65 93V79H69V74H72V65H78V73H83V82H87V90H83V97H69V93z"/>
<path fill="#899778" d="M69 82H80V93H69z"/>
<path fill="#d8d8ae" d="M76 78H79V82H76z"/>
<path fill="#26393a" d="M87 82H95V85H89z"/>
<path fill="#26393a" d="M110 77H119V72H129V76H133V88H129V93H113V90H107V86H101V82H108zM108 82L98 75V93z"/>
<path fill="#899778" d="M113 79H128V87H113z"/>
<path fill="#d8d8ae" d="M124 82H127V85H124z"/>
<!-- Main title is framed like a handheld game's boot/logo screen. -->
<rect x="16" y="10" width="128" height="24" fill="#26393a"/>
<rect x="19" y="13" width="122" height="18" fill="#d8d8ae"/>
<text x="80" y="26" text-anchor="middle" fill="#26393a" font-family="monospace" font-weight="900" font-size="17" letter-spacing="1">NINOMON</text>
<rect x="20" y="37" width="120" height="9" fill="#26393a"/>
<text x="80" y="44" text-anchor="middle" fill="#d8d8ae" font-family="monospace" font-weight="bold" font-size="6" letter-spacing="1">CRONACHE DI STRADA</text>
</svg>